<svg width="203" height="65" viewBox="0 0 203 65" fill="none" xmlns="http://www.w3.org/2000/svg">
<g clip-path="url(#clip0_264_1158)">
<path d="M55.2275 27.1806C55.2275 31.1746 54.4786 34.9847 52.9808 38.6108C51.5094 42.237 49.289 45.4164 46.3198 48.1491L51.759 54.6131L37.3334 63.9149L33.9437 54.6131C32.9452 54.8233 31.9335 54.981 30.9088 55.0861C29.9103 55.1912 28.8987 55.2437 27.8739 55.2437C25.3514 55.2437 22.9339 54.9284 20.6216 54.2978C18.3093 53.6671 16.1415 52.7869 14.1183 51.657C12.095 50.5009 10.2557 49.1082 8.60024 47.4791C6.94483 45.85 5.51276 44.0369 4.30405 42.0399C3.12161 40.0429 2.20194 37.8882 1.54504 35.5759C0.914406 33.2373 0.599091 30.8068 0.599091 28.2843C0.599091 25.788 0.901266 23.3706 1.50562 21.032C2.13626 18.6671 3.01651 16.4468 4.14639 14.371C5.30255 12.2952 6.68209 10.4032 8.28491 8.6953C9.91403 6.96108 11.7271 5.47643 13.7241 4.24145C15.7211 2.98018 17.8757 2.00796 20.1881 1.32478C22.5004 0.641595 24.931 0.300003 27.4797 0.300003C31.5525 0.300003 35.2838 0.917493 38.6734 2.15248C42.0894 3.38747 45.0191 5.16111 47.4628 7.47342C49.9065 9.78578 51.8115 12.6104 53.1779 15.9475C54.5443 19.2584 55.2275 23.0027 55.2275 27.1806ZM36.0721 28.2843C36.0721 27.0755 35.8882 25.9062 35.5203 24.7764C35.1787 23.6202 34.6663 22.6086 33.9831 21.7414C33.2999 20.8481 32.446 20.1386 31.4212 19.6131C30.3964 19.0876 29.214 18.8248 27.8739 18.8248C26.5601 18.8248 25.3776 19.0613 24.3266 19.5343C23.2756 19.9809 22.369 20.6116 21.607 21.4262C20.8712 22.2407 20.2932 23.1998 19.8728 24.3034C19.4786 25.407 19.2816 26.6026 19.2816 27.8901C19.2816 29.0988 19.4523 30.2944 19.7939 31.4768C20.1618 32.633 20.6873 33.684 21.3705 34.63C22.0537 35.5496 22.9076 36.2985 23.9325 36.8766C24.9572 37.4547 26.1396 37.7437 27.4797 37.7437C28.7673 37.7437 29.9366 37.4941 30.9876 36.9948C32.065 36.4693 32.9715 35.773 33.7072 34.9059C34.4692 34.0388 35.0473 33.0403 35.4414 31.9104C35.8619 30.7542 36.0721 29.5455 36.0721 28.2843Z" fill="white"/>
<path d="M163.195 0.731308L162.886 13.8619L153.657 14.2336L152.543 42.9723L139.474 43.6536L138.297 14.9149L129.068 15.4104L129.44 0.793244L163.195 0.731308Z" fill="white"/>
<path d="M76.096 17.8744C75.4203 23.1597 74.842 28.4224 74.3617 33.6626C73.8814 38.8879 73.423 44.1506 72.9877 49.4509L63.7533 50.1266L64.1592 46.6581C63.8588 47.0035 63.5059 47.3038 63.1006 47.559C62.7102 47.8143 62.2893 48.0245 61.839 48.1897C61.3887 48.3398 60.9234 48.4525 60.4426 48.5275C59.9623 48.5875 59.5045 48.6101 59.0686 48.595C58.0479 48.5801 57.0867 48.3849 56.1858 48.0095C55.2849 47.6191 54.4591 47.1086 53.7084 46.478C52.9576 45.8323 52.2819 45.0891 51.6813 44.2482C51.0807 43.3924 50.5703 42.499 50.1498 41.5681C49.7444 40.6221 49.4291 39.6612 49.2039 38.6852C48.9937 37.7092 48.8885 36.7632 48.8885 35.8473C48.8885 34.496 48.911 33.0995 48.9561 31.6581C49.0161 30.2017 49.1138 28.7452 49.2489 27.2888C49.3841 25.8323 49.5567 24.3909 49.7669 22.9644C49.9921 21.538 50.2699 20.1717 50.6002 18.8654C52.432 18.9554 54.2714 19.038 56.1182 19.1131C57.9648 19.1881 59.8043 19.2107 61.6367 19.1806C61.2913 20.4869 60.9459 21.8008 60.6006 23.1221C60.2702 24.4284 59.9698 25.7498 59.6994 27.0861C59.4289 28.4074 59.2116 29.7362 59.0461 31.0725C58.8812 32.4089 58.7987 33.7602 58.7987 35.1266C58.7987 35.4419 58.8137 35.8924 58.8437 36.4779C58.8737 37.0635 58.9487 37.6416 59.0686 38.2122C59.2041 38.7827 59.399 39.2858 59.6544 39.7212C59.9248 40.1416 60.3002 40.3518 60.7804 40.3518C61.3513 40.3518 61.8615 40.1116 62.3118 39.6311C62.7627 39.1356 63.1605 38.475 63.5059 37.6491C63.8513 36.8233 64.1442 35.8698 64.384 34.7887C64.6395 33.7077 64.8493 32.5816 65.0148 31.4104C65.1947 30.2242 65.3377 29.0305 65.4426 27.8293C65.5476 26.6281 65.6231 25.502 65.6681 24.4509C65.728 23.3849 65.7655 22.4314 65.7805 21.5906C65.8105 20.7497 65.8255 20.0966 65.8255 19.6311C65.8255 19.3308 65.818 19.038 65.803 18.7527C65.788 18.4674 65.7655 18.1746 65.7355 17.8744C66.7117 17.9044 67.6798 17.9269 68.6409 17.9419C69.6021 17.9569 70.5701 17.9644 71.5463 17.9644C72.297 17.9644 73.0477 17.9644 73.7984 17.9644C74.5641 17.9494 75.3304 17.9194 76.096 17.8744ZM89.2039 17.8744L87.6276 48.55L78.1227 49.0455L77.2221 18.505L89.2039 17.8744ZM112.177 25.7572L101.862 38.7753H111.366L111.681 48.3248L91.5915 49.1356L90.6903 40.3068L102.447 25.8923L90.7803 26.7032L90.6903 17.6491H111.772L112.177 25.7572ZM138.573 31.3879C138.573 32.6942 138.483 34.0005 138.303 35.3068C135.735 35.4719 133.183 35.7422 130.645 36.1176C128.108 36.4779 125.57 36.8383 123.033 37.1987C123.423 38.2797 124.031 39.1431 124.857 39.7888C125.698 40.4344 126.696 40.7572 127.852 40.7572C128.453 40.7572 129.106 40.6446 129.812 40.4194C130.533 40.1941 131.246 39.9164 131.952 39.586C132.658 39.2407 133.333 38.8729 133.979 38.4825C134.624 38.0921 135.18 37.7392 135.645 37.4239L134.564 47.6491C133.979 48.0996 133.341 48.4824 132.65 48.7978C131.974 49.1131 131.269 49.3683 130.533 49.5635C129.797 49.7587 129.054 49.9014 128.303 49.9915C127.552 50.0816 126.816 50.1266 126.096 50.1266C124.609 50.1266 123.251 49.9239 122.019 49.5185C120.788 49.1131 119.67 48.55 118.664 47.8293C117.672 47.0936 116.802 46.2302 116.051 45.2392C115.3 44.2482 114.677 43.1672 114.181 41.996C113.686 40.8248 113.311 39.586 113.055 38.2797C112.8 36.9735 112.672 35.6521 112.672 34.3158C112.672 32.9194 112.8 31.523 113.055 30.1266C113.311 28.7302 113.693 27.3864 114.204 26.0951C114.73 24.8038 115.383 23.6101 116.164 22.514C116.959 21.4029 117.883 20.4344 118.934 19.6086C119.984 18.7827 121.171 18.1371 122.492 17.6716C123.829 17.2062 125.3 16.9734 126.907 16.9734C128.243 16.9734 129.459 17.1611 130.555 17.5365C131.666 17.8969 132.65 18.4074 133.506 19.068C134.376 19.7137 135.128 20.4869 135.758 21.3879C136.404 22.2887 136.929 23.2798 137.335 24.3608C137.755 25.4269 138.063 26.5605 138.258 27.7617C138.468 28.9479 138.573 30.1566 138.573 31.3879ZM129.564 30.2167C129.564 29.7963 129.519 29.3683 129.429 28.9329C129.339 28.4824 129.189 28.077 128.978 27.7167C128.784 27.3563 128.521 27.0635 128.19 26.8383C127.86 26.5981 127.447 26.478 126.952 26.478C126.351 26.478 125.818 26.6431 125.352 26.9734C124.902 27.2888 124.512 27.6941 124.181 28.1897C123.851 28.6702 123.581 29.1957 123.371 29.7662C123.16 30.3368 123.003 30.8623 122.898 31.3428L129.564 30.7122V30.2167Z" fill="white"/>
<path d="M178.745 31.3879C178.745 32.6942 178.655 34.0005 178.474 35.3068C175.907 35.4719 173.354 35.7422 170.817 36.1176C168.279 36.4779 165.742 36.8383 163.204 37.1987C163.594 38.2797 164.203 39.1431 165.028 39.7888C165.869 40.4344 166.868 40.7572 168.024 40.7572C168.624 40.7572 169.278 40.6446 169.983 40.4194C170.704 40.1941 171.417 39.9164 172.123 39.586C172.829 39.2407 173.504 38.8729 174.15 38.4825C174.796 38.0921 175.351 37.7392 175.817 37.4239L174.736 47.6491C174.15 48.0996 173.512 48.4824 172.821 48.7978C172.146 49.1131 171.44 49.3683 170.704 49.5635C169.968 49.7587 169.225 49.9014 168.474 49.9915C167.723 50.0816 166.988 50.1266 166.267 50.1266C164.78 50.1266 163.421 49.9239 162.19 49.5185C160.959 49.1131 159.84 48.55 158.835 47.8293C157.844 47.0936 156.973 46.2302 156.222 45.2392C155.471 44.2482 154.848 43.1672 154.352 41.996C153.857 40.8248 153.482 39.586 153.226 38.2797C152.971 36.9735 152.844 35.6521 152.844 34.3158C152.844 32.9194 152.971 31.523 153.226 30.1266C153.482 28.7302 153.865 27.3864 154.375 26.0951C154.901 24.8038 155.554 23.6101 156.335 22.514C157.13 21.4029 158.054 20.4344 159.105 19.6086C160.156 18.7827 161.342 18.1371 162.663 17.6716C164 17.2062 165.471 16.9734 167.078 16.9734C168.414 16.9734 169.631 17.1611 170.727 17.5365C171.838 17.8969 172.821 18.4074 173.677 19.068C174.548 19.7137 175.298 20.4869 175.929 21.3879C176.575 22.2887 177.1 23.2798 177.506 24.3608C177.926 25.4269 178.234 26.5605 178.429 27.7617C178.64 28.9479 178.745 30.1566 178.745 31.3879ZM169.736 30.2167C169.736 29.7963 169.691 29.3683 169.601 28.9329C169.51 28.4824 169.36 28.077 169.15 27.7167C168.955 27.3563 168.692 27.0635 168.362 26.8383C168.031 26.5981 167.618 26.478 167.123 26.478C166.522 26.478 165.989 26.6431 165.524 26.9734C165.073 27.2888 164.683 27.6941 164.353 28.1897C164.022 28.6702 163.752 29.1957 163.542 29.7662C163.331 30.3368 163.174 30.8623 163.069 31.3428L169.736 30.7122V30.2167ZM201.718 18.8203L200.906 28.3248C200.471 28.2047 200.043 28.1221 199.623 28.077C199.203 28.032 198.775 28.0095 198.339 28.0095C197.273 28.0095 196.252 28.1446 195.276 28.4149C194.315 28.6852 193.459 29.098 192.709 29.6536C191.973 30.2092 191.38 30.9149 190.929 31.7708C190.494 32.6116 190.276 33.6101 190.276 34.7663C190.276 35.6071 190.396 36.3428 190.636 36.9734C190.892 37.5891 191.245 38.1071 191.695 38.5275C192.16 38.9329 192.716 39.2407 193.362 39.4509C194.022 39.6612 194.75 39.7663 195.547 39.7663C196.102 39.7663 196.673 39.7137 197.258 39.6086C197.844 39.4885 198.429 39.3308 199.015 39.1356C199.6 38.9404 200.163 38.7152 200.704 38.4599C201.244 38.2047 201.748 37.9344 202.213 37.6491L201.853 48.2347C201.267 48.535 200.637 48.8053 199.961 49.0455C199.285 49.2707 198.587 49.466 197.866 49.6311C197.16 49.8113 196.447 49.9464 195.726 50.0365C195.021 50.1266 194.345 50.1716 193.699 50.1716C191.568 50.1716 189.623 49.7737 187.866 48.9779C186.124 48.1822 184.623 47.1011 183.362 45.7347C182.115 44.3533 181.147 42.7542 180.456 40.9374C179.766 39.1206 179.42 37.1837 179.42 35.1266C179.42 32.6641 179.766 30.3669 180.456 28.2347C181.162 26.1026 182.19 24.2557 183.542 22.6942C184.908 21.1176 186.59 19.8864 188.587 19.0005C190.599 18.0996 192.904 17.6491 195.501 17.6491C196.537 17.6491 197.588 17.7317 198.654 17.8969C199.72 18.062 200.742 18.3699 201.718 18.8203Z" fill="white"/>
</g>
<defs>
<clipPath id="clip0_264_1158">
<rect width="201.802" height="64" fill="white" transform="translate(0.599091 0.300003)"/>
</clipPath>
</defs>
</svg>
